<svg width="240" height="240" viewBox="0 0 240 240" fill="none" xmlns="http://www.w3.org/2000/svg">
<rect width="240" height="240" fill="white"/>
<path d="M77.7158 233.3L87 187.5L100 193.5L77.7158 233.3Z" fill="black"/>
<path d="M140.203 116.973C146.636 129.501 150.134 141.928 150.657 151.842C151.19 161.963 148.623 168.606 144.056 170.951C139.488 173.297 132.594 171.513 124.679 165.182C116.926 158.981 108.864 148.897 102.431 136.369C95.9982 123.842 92.5 111.414 91.9774 101.501C91.4438 91.3791 94.011 84.7363 98.5784 82.3908C103.146 80.0454 110.04 81.8295 117.955 88.1604C125.708 94.3613 133.77 104.445 140.203 116.973Z" stroke="black" stroke-width="4"/>
<path d="M100.431 116.973C93.9982 129.501 90.5 141.928 89.9774 151.842C89.4438 161.963 92.011 168.606 96.5784 170.951C101.146 173.297 108.04 171.513 115.955 165.182C123.708 158.981 131.77 148.897 138.203 136.369C144.636 123.842 148.134 111.414 148.657 101.501C149.19 91.3791 146.623 84.7363 142.056 82.3908C137.488 80.0454 130.594 81.8295 122.679 88.1604C114.926 94.3613 106.864 104.445 100.431 116.973Z" stroke="black" stroke-width="4"/>
<path d="M121.777 103C107.695 103 95.0414 105.565 85.9839 109.629C76.7365 113.778 72 119.096 72 124.23C72 129.365 76.7365 134.683 85.9839 138.832C95.0414 142.895 107.695 145.46 121.777 145.46C135.86 145.46 148.513 142.895 157.571 138.832C166.818 134.683 171.555 129.365 171.555 124.23C171.555 119.096 166.818 113.778 157.571 109.629C148.513 105.565 135.86 103 121.777 103Z" stroke="black" stroke-width="4"/>
<path d="M130.295 125.353C130.295 130.681 125.975 135 120.647 135C115.319 135 111 130.681 111 125.353C111 120.025 115.319 115.705 120.647 115.705C125.975 115.705 130.295 120.025 130.295 125.353Z" fill="black"/>
<circle cx="151.5" cy="23.5" r="17.5" fill="black"/>
<path d="M141.382 34L155.279 39.2122L146 64.5L132 59.0142L141.382 34Z" fill="black"/>
<path fill-rule="evenodd" clip-rule="evenodd" d="M177.158 126.437C177.158 157.176 152.239 182.095 121.5 182.095C118.765 182.095 116.077 181.898 113.448 181.517L108.331 195.709C112.597 196.515 116.999 196.937 121.5 196.937C160.436 196.937 192 165.373 192 126.437C192 99.8567 177.29 76.7122 155.567 64.6996L150.45 78.8914C166.466 88.6643 177.158 106.302 177.158 126.437ZM142.382 74.8291L147.379 60.8383C139.367 57.6749 130.637 55.9369 121.5 55.9369C82.5639 55.9369 51 87.5008 51 126.437C51 157.913 71.6276 184.571 100.102 193.631L100 193.5L104.965 179.597C82.3003 172.556 65.8421 151.418 65.8421 126.437C65.8421 95.6979 90.761 70.779 121.5 70.779C128.885 70.779 135.934 72.2173 142.382 74.8291Z" fill="black"/>
</svg>
