<svg width="512" height="512" viewBox="0 0 512 512" fill="none" xmlns="http://www.w3.org/2000/svg">
<path d="M157.178 512L178.091 408.834L207.374 422.349L157.178 512Z" fill="#5850EC"/>
<path fill-rule="evenodd" clip-rule="evenodd" d="M317.457 328.725C316.316 307.083 308.641 279.644 294.348 251.81C280.056 223.977 262.227 201.752 245.303 188.215C227.685 174.123 214.006 171.551 206.012 175.656C198.018 179.761 192.138 192.377 193.325 214.906C194.466 236.548 202.141 263.987 216.434 291.82C230.727 319.654 248.555 341.879 265.48 355.416C283.097 369.508 296.776 372.08 304.77 367.974C312.765 363.869 318.645 351.254 317.457 328.725ZM308.668 375.565C334.376 362.364 331.364 305.212 301.939 247.912C272.515 190.612 227.822 154.864 202.114 168.065C176.406 181.266 179.419 238.419 208.843 295.718C238.267 353.018 282.961 388.767 308.668 375.565Z" fill="#5850EC"/>
<path fill-rule="evenodd" clip-rule="evenodd" d="M188.82 328.725C189.961 307.083 197.636 279.644 211.929 251.81C226.222 223.977 244.05 201.752 260.975 188.215C278.592 174.123 292.271 171.551 300.265 175.656C308.26 179.761 314.14 192.377 312.952 214.906C311.811 236.548 304.136 263.987 289.843 291.82C275.551 319.654 257.722 341.879 240.798 355.416C223.18 369.508 209.501 372.08 201.507 367.974C193.513 363.869 187.633 351.254 188.82 328.725ZM197.609 375.565C171.901 362.364 174.914 305.212 204.338 247.912C233.762 190.612 278.456 154.864 304.163 168.065C329.871 181.266 326.859 238.419 297.434 295.718C268.01 353.018 223.317 388.767 197.609 375.565Z" fill="#5850EC"/>
<path fill-rule="evenodd" clip-rule="evenodd" d="M177.451 237.102C197.224 228.231 225.139 222.524 256.428 222.524C287.717 222.524 315.632 228.231 335.405 237.102C355.988 246.337 364.525 257.331 364.525 266.317C364.525 275.304 355.988 286.297 335.405 295.532C315.632 304.403 287.717 310.111 256.428 310.111C225.139 310.111 197.225 304.403 177.451 295.532C156.868 286.297 148.331 275.304 148.331 266.317C148.331 257.331 156.868 246.337 177.451 237.102ZM139.798 266.317C139.798 237.418 192.015 213.99 256.428 213.99C320.841 213.99 373.058 237.418 373.058 266.317C373.058 295.216 320.841 318.644 256.428 318.644C192.015 318.644 139.798 295.216 139.798 266.317Z" fill="#5850EC"/>
<path d="M275.614 268.845C275.614 280.847 265.885 290.576 253.883 290.576C241.881 290.576 232.152 280.847 232.152 268.845C232.152 256.844 241.881 247.114 253.883 247.114C265.885 247.114 275.614 256.844 275.614 268.845Z" fill="#5850EC"/>
<circle cx="323.379" cy="39.4193" r="39.4193" fill="#5850EC"/>
<path d="M300.588 63.0708L331.891 74.8114L310.99 131.773L279.455 119.416L300.588 63.0708Z" fill="#5850EC"/>
<path fill-rule="evenodd" clip-rule="evenodd" d="M381.174 271.288C381.174 340.528 325.044 396.659 255.803 396.659C249.644 396.659 243.588 396.214 237.666 395.356L226.139 427.325C235.749 429.141 245.665 430.091 255.803 430.091C343.508 430.091 414.607 358.992 414.607 271.288C414.607 211.415 381.473 159.281 332.541 132.223L321.015 164.19C357.091 186.204 381.174 225.933 381.174 271.288ZM302.842 155.04L314.097 123.525C296.05 116.399 276.384 112.484 255.803 112.484C168.099 112.484 97 183.583 97 271.288C97 342.189 143.464 402.237 207.604 422.644L207.374 422.349L218.558 391.034C167.505 375.171 130.432 327.559 130.432 271.288C130.432 202.047 186.563 145.917 255.803 145.917C272.438 145.917 288.317 149.156 302.842 155.04Z" fill="#5850EC"/>
</svg>
