<svg width="54" height="54" viewBox="0 0 240 240" fill="none" xmlns="http://www.w3.org/2000/svg">
  <path d="M0 0h240v240H0z"/>
  <path d="M77.7158 233.3L87 187.5l13 6-22.2842 39.8z" fill="#5A67D8"/>
  <path d="M140.203 116.973c6.433 12.528 9.931 24.955 10.454 34.869.533 10.121-2.034 16.764-6.601 19.109-4.568 2.346-11.462.562-19.377-5.769-7.753-6.201-15.815-16.285-22.248-28.813-6.4328-12.527-9.931-24.955-10.4536-34.868-.5336-10.1219 2.0336-16.7647 6.601-19.1102 4.5676-2.3454 11.4616-.5613 19.3766 5.7696 7.753 6.2009 15.815 16.2846 22.248 28.8126z" stroke="#5A67D8" stroke-width="4"/>
  <path d="M100.431 116.973c-6.4328 12.528-9.931 24.955-10.4536 34.869-.5336 10.121 2.0336 16.764 6.601 19.109 4.5676 2.346 11.4616.562 19.3766-5.769 7.753-6.201 15.815-16.285 22.248-28.813 6.433-12.527 9.931-24.955 10.454-34.868.533-10.1219-2.034-16.7647-6.601-19.1102-4.568-2.3454-11.462-.5613-19.377 5.7696-7.753 6.2009-15.815 16.2846-22.248 28.8126z" stroke="#5A67D8" stroke-width="4"/>
  <path d="M121.777 103c-14.082 0-26.7356 2.565-35.7931 6.629C76.7365 113.778 72 119.096 72 124.23c0 5.135 4.7365 10.453 13.9839 14.602 9.0575 4.063 21.7111 6.628 35.7931 6.628 14.083 0 26.736-2.565 35.794-6.628 9.247-4.149 13.984-9.467 13.984-14.602 0-5.134-4.737-10.452-13.984-14.601-9.058-4.064-21.711-6.629-35.794-6.629z" stroke="#5A67D8" stroke-width="4"/>
  <path d="M130.295 125.353c0 5.328-4.32 9.647-9.648 9.647-5.328 0-9.647-4.319-9.647-9.647s4.319-9.648 9.647-9.648 9.648 4.32 9.648 9.648z" fill="#5A67D8"/>
  <circle cx="151.5" cy="23.5" r="17.5" fill="#5A67D8"/>
  <path d="M141.382 34l13.897 5.2122L146 64.5l-14-5.4858L141.382 34z" fill="#5A67D8"/>
  <path fill-rule="evenodd" clip-rule="evenodd" d="M177.158 126.437c0 30.739-24.919 55.658-55.658 55.658-2.735 0-5.423-.197-8.052-.578l-5.117 14.192c4.266.806 8.668 1.228 13.169 1.228 38.936 0 70.5-31.564 70.5-70.5 0-26.5803-14.71-49.7248-36.433-61.7374l-5.117 14.1918c16.016 9.7729 26.708 27.4106 26.708 47.5456zm-34.776-51.6079l4.997-13.9908c-8.012-3.1634-16.742-4.9014-25.879-4.9014-38.9361 0-70.5 31.5639-70.5 70.5001 0 31.476 20.6276 58.134 49.102 67.194L100 193.5l4.965-13.903c-22.6647-7.041-39.1229-28.179-39.1229-53.16 0-30.7391 24.9189-55.658 55.6579-55.658 7.385 0 14.434 1.4383 20.882 4.0501z" fill="#5A67D8"/>
</svg>